PathFileType	3	(X/Y/Z)	running_1__fused_aligned.trc
DataRate	CameraRate	NumFrames	NumMarkers	Units	OrigDataRate	OrigDataStartFrame	OrigNumFrames
100.0	100.0	12	19	mm	100.0	1840	6379
Frame#	Time	pelvis			neck			head			hip_left			hip_right			knee_left			knee_right			ankle_left			ankle_right			heel_left			heel_right			toe_left			toe_right			shoulder_left			shoulder_right			elbow_left			elbow_right			wrist_left			wrist_right			
		X1	Y1	Z1	X2	Y2	Z2	X3	Y3	Z3	X4	Y4	Z4	X5	Y5	Z5	X6	Y6	Z6	X7	Y7	Z7	X8	Y8	Z8	X9	Y9	Z9	X10	Y10	Z10	X11	Y11	Z11	X12	Y12	Z12	X13	Y13	Z13	X14	Y14	Z14	X15	Y15	Z15	X16	Y16	Z16	X17	Y17	Z17	X18	Y18	Z18	X19	Y19	Z19	
1840	18.39000	30.016307	938.009603	148.585205	17.323359	1483.295765	290.571999	21.586067	1572.052896	435.986624	107.035383	939.248528	147.245461	-47.002921	936.770690	149.924897	135.656923	527.699652	316.262716	-96.495478	512.370399	210.426921	126.835783	169.248589	165.689625	-128.925388	240.487290	-99.196502	122.919487	131.579561	124.717439	-128.167734	228.970134	-155.053523	128.103249	88.249248	322.140578	-138.222000	83.440490	-13.795794	179.488115	1457.031786	229.265769	-152.417708	1429.257147	255.630126	248.072605	1240.771576	87.006970	-228.989349	1166.798201	184.480323	258.413920	1062.146132	204.198558	-156.717623	1063.933528	380.980705
1841	18.40000	32.437616	939.146430	147.008825	20.175386	1484.360401	289.764269	24.070672	1572.880745	435.328919	109.457023	940.445510	145.872028	-44.581964	937.847352	148.145604	137.321993	528.667068	311.560438	-95.160858	514.075557	210.809467	129.544110	165.078255	165.141852	-128.005358	243.382412	-98.367207	125.776471	126.236671	124.283443	-127.184701	232.157642	-154.125993	131.059717	85.893170	325.635629	-137.978454	86.070112	-13.892438	182.926501	1457.351476	229.604152	-149.574057	1431.217643	253.993664	250.013688	1239.054737	90.926598	-226.730363	1169.929040	180.569331	255.129743	1065.792165	209.259856	-156.252318	1065.070184	375.552724
1842	18.41000	34.858925	940.283256	145.432446	23.027412	1485.425038	288.956539	26.555277	1573.708593	434.671214	111.878662	941.642492	144.498596	-42.161007	938.924013	146.366310	138.987063	529.634484	306.858160	-93.826238	515.780715	211.192013	132.252437	160.907920	164.594080	-127.085327	246.277534	-97.537913	128.633456	120.893781	123.849448	-126.201668	235.345151	-153.198464	134.016185	83.537092	329.130681	-137.734907	88.699735	-13.989083	186.364887	1457.671166	229.942535	-146.730405	1433.178140	252.357201	251.954770	1237.337898	94.846226	-224.471377	1173.059879	176.658340	251.845566	1069.438198	214.321154	-155.787012	1066.206841	370.124744
1843	18.42000	37.280234	941.420083	143.856066	25.879439	1486.489674	288.148809	29.039883	1574.536441	434.013509	114.300302	942.839474	143.125163	-39.740051	940.000675	144.587017	140.652133	530.601900	302.155883	-92.491618	517.485873	211.574558	134.960763	156.737585	164.046307	-126.165296	249.172656	-96.708618	131.490440	115.550891	123.415453	-125.218635	238.532660	-152.270935	136.972654	81.181014	332.625732	-137.491360	91.329357	-14.085727	189.803273	1457.990856	230.280918	-143.886754	1435.138636	250.720738	253.895853	1235.621060	98.765854	-222.212392	1176.190718	172.747349	248.561389	1073.084231	219.382452	-155.321707	1067.343497	364.696763
1844	18.43000	39.701543	942.556910	142.279686	28.731466	1487.554310	287.341079	31.524488	1575.364290	433.355804	116.721941	944.036456	141.751731	-37.319094	941.077337	142.807724	142.317203	531.569316	297.453605	-91.156998	519.191031	211.957104	137.669090	152.567251	163.498534	-125.245265	252.067778	-95.879323	134.347425	110.208001	122.981458	-124.235603	241.720168	-151.343406	139.929122	78.824936	336.120784	-137.247814	93.958980	-14.182372	193.241659	1458.310546	230.619301	-141.043102	1437.099132	249.084275	255.836935	1233.904221	102.685482	-219.953406	1179.321557	168.836357	245.277212	1076.730264	224.443750	-154.856401	1068.480154	359.268783
1845	18.44000	42.122852	943.693736	140.703306	31.583492	1488.618946	286.533349	34.009093	1576.192138	432.698099	119.143580	945.233438	140.378298	-34.898137	942.153999	141.028431	143.982273	532.536731	292.751327	-89.822379	520.896189	212.339650	140.377417	148.396916	162.950762	-124.325235	254.962899	-95.050029	137.204410	104.865112	122.547463	-123.252570	244.907677	-150.415876	142.885590	76.468858	339.615835	-137.004267	96.588602	-14.279016	196.680045	1458.630236	230.957684	-138.199451	1439.059629	247.447812	257.778018	1232.187382	106.605110	-217.694420	1182.452396	164.925366	241.993034	1080.376297	229.505048	-154.391096	1069.616811	353.840802
1846	18.45000	44.544160	944.830563	139.126926	34.435519	1489.683582	285.725618	36.493699	1577.019987	432.040394	121.565220	946.430420	139.004865	-32.477180	943.230661	139.249137	145.647343	533.504147	288.049049	-88.487759	522.601347	212.722195	143.085744	144.226581	162.402989	-123.405204	257.858021	-94.220734	140.061394	99.522222	122.113468	-122.269537	248.095186	-149.488347	145.842059	74.112780	343.110887	-136.760720	99.218225	-14.375661	200.118431	1458.949927	231.296066	-135.355800	1441.020125	245.811349	259.719100	1230.470543	110.524738	-215.435434	1185.583236	161.014375	238.708857	1084.022330	234.566346	-153.925791	1070.753467	348.412822
1847	18.46000	46.928588	945.674417	138.216408	36.289887	1490.469730	285.247540	37.662818	1577.661757	431.433230	123.926829	947.347425	138.151631	-30.069921	944.001369	138.281339	147.570854	533.381025	279.024425	-85.958675	524.413052	216.456175	145.044502	142.963809	152.628464	-121.039115	257.892218	-85.126331	141.843503	98.368816	112.222665	-119.971908	247.671120	-139.888198	147.851116	71.830939	332.590164	-134.446587	100.785366	-4.313175	202.659491	1459.442803	232.915171	-133.084085	1442.800126	243.673622	263.581676	1229.866729	116.484777	-213.852210	1189.808637	154.539938	234.622176	1088.853248	242.832974	-155.918498	1070.515924	338.434292
1848	18.47000	49.313016	946.518272	137.305891	38.144255	1491.255877	284.769461	38.831938	1578.303528	430.826065	126.288437	948.264431	137.298396	-27.662662	944.772076	137.313540	149.494365	533.257902	269.999800	-83.429592	526.224757	220.190155	147.003261	141.701036	142.853938	-118.673025	257.926415	-76.031929	143.625612	97.215410	102.331863	-117.674279	247.247055	-130.288049	149.860173	69.549099	322.069442	-132.132453	102.352508	5.749310	205.200551	1459.935680	234.534275	-130.812371	1444.580126	241.535894	267.444251	1229.262915	122.444816	-212.268985	1194.034039	148.065501	230.535495	1093.684167	251.099601	-157.911205	1070.278381	328.455762
1849	18.48000	51.697444	947.362126	136.395373	39.998623	1492.042025	284.291382	40.001057	1578.945299	430.218900	128.650046	949.181437	136.445162	-25.255402	945.542784	136.345741	151.417875	533.134779	260.975175	-80.900509	528.036462	223.924135	148.962020	140.438264	133.079412	-116.306936	257.960612	-66.937527	145.407721	96.062004	92.441061	-115.376651	246.822989	-120.687900	151.869230	67.267258	311.548719	-129.818319	103.919649	15.811795	207.741612	1460.428556	236.153379	-128.540656	1446.360126	239.398167	271.306827	1228.659101	128.404855	-210.685760	1198.259441	141.591065	226.448813	1098.515086	259.366229	-159.903912	1070.040838	318.477233
1850	18.49000	54.081872	948.205980	135.484855	41.852991	1492.828172	283.813303	41.170177	1579.587069	429.611736	131.011655	950.098443	135.591927	-22.848143	946.313492	135.377943	153.341386	533.011656	251.950550	-78.371426	529.848167	227.658115	150.920779	139.175491	123.304887	-113.940847	257.994809	-57.843125	147.189830	94.908599	82.550258	-113.079022	246.398923	-111.087751	153.878287	64.985417	301.027996	-127.504186	105.486791	25.874281	210.282672	1460.921433	237.772484	-126.268942	1448.140127	237.260439	275.169402	1228.055286	134.364894	-209.102535	1202.484842	135.116628	222.362132	1103.346004	267.632856	-161.896619	1069.803295	308.498703
1851	18.50000	56.466300	949.049835	134.574337	43.707359	1493.614320	283.335224	42.339296	1580.228840	429.004571	133.373264	951.015449	134.738692	-20.440884	947.084199	134.410144	155.264896	532.888533	242.925925	-75.842343	531.659872	231.392095	152.879537	137.912719	113.530361	-111.574757	258.029006	-48.748722	148.971939	93.755193	72.659456	-110.781394	245.974858	-101.487602	155.887344	62.703576	290.507274	-125.190052	107.053932	35.936766	212.823732	1461.414309	239.391588	-123.997227	1449.920127	235.122712	279.031977	1227.451472	140.324934	-207.519310	1206.710244	128.642191	218.275450	1108.176923	275.899484	-163.889325	1069.565752	298.520174
